<?xml version="1.0" encoding="utf-8"?>
<!-- Generator: Adobe Illustrator 18.0.0, SVG Export Plug-In . SVG Version: 6.00 Build 0)  -->
<!DOCTYPE svg PUBLIC "-//W3C//DTD SVG 1.1//EN" "http://www.w3.org/Graphics/SVG/1.1/DTD/svg11.dtd">
<svg version="1.1" xmlns="http://www.w3.org/2000/svg" xmlns:xlink="http://www.w3.org/1999/xlink" x="0px" y="0px"
	 viewBox="0 0 300 300" enable-background="new 0 0 300 300" xml:space="preserve">
<g id="Capa_1" display="none">
	<g display="inline">
		<g>
			<g>
				<polygon fill="#222831" points="210,197 207,197 207,116.5 150.5,152 94,116.5 94,197 91,197 91,110.8 150.5,148.3 210,110.8 
									"/>
			</g>
		</g>
		<g>
			<path fill="#222831" d="M150.5,290l-0.9-0.5L33,220V80l117-70l117,70v140L150.5,290z M36,218.2l114.5,68.1L265,218.2V81.8
				L150.5,13.7L36,81.8V218.2z"/>
		</g>
	</g>
</g>
<g id="Capa_2">
	<g>
		<polyline fill="none" stroke="#222831" stroke-width="6" stroke-miterlimit="10" points="90,195 90,110.9 149.5,147.7 209,110.9 
			209,195 		"/>
	</g>
	<polygon fill="none" stroke="#222831" stroke-width="6" stroke-miterlimit="10" points="32,80.2 149.5,10.5 267,80.2 267,219.6 
		149.5,289.3 32,219.6 	"/>
</g>
</svg>
